<svg width="700" height="69" viewBox="0 0 700 69" fill="none" xmlns="http://www.w3.org/2000/svg">
<path d="M324.71 7L319.028 26.9626L320.673 25.3925L321.869 28.6075L322.318 17.3178H324.71V7Z" fill="#2A82A8" stroke="#2A82A8"/>
<path d="M328 7.59813L322.318 27.5608L323.963 25.9907L325.159 29.2056L325.608 17.9159H328V7.59813Z" fill="#5B5652" stroke="#5B5652"/>
<path d="M300.486 50.6636L319.551 35.5608V40.2711L318.355 38.8505L300.486 52.3085V55.4487V58.5141H299.14V47.2243H300.486V50.6636Z" fill="#5B5652"/>
<path d="M300.486 50.6636L319.551 35.5608V40.2711L318.355 38.8505L300.486 52.3085M300.486 50.6636V52.3085M300.486 50.6636V47.2243H299.14V58.5141H300.486V55.4487V52.3085" stroke="#5B5652"/>
<path d="M297.346 49.9159L316.411 34.8131V39.5234L315.215 38.1028L297.346 51.5608V54.701V57.7664H296V46.4767H297.346V49.9159Z" fill="#2A82A8"/>
<path d="M297.346 49.9159L316.411 34.8131V39.5234L315.215 38.1028L297.346 51.5608M297.346 49.9159V51.5608M297.346 49.9159V46.4767H296V57.7664H297.346V54.701V51.5608" stroke="#2A82A8"/>
<path d="M312.598 54.8505L307.664 54.8992V55.289H308.404C311.255 55.3235 312.049 56.3295 312.598 59.187V54.8505Z" fill="#5B5652" stroke="#5B5652"/>
<path d="M309.159 53.8038L300.636 53.8408V54.1365C305.477 54.3957 308.126 55.162 309.159 57.0935V53.8038Z" fill="#2A82A8" stroke="#2A82A8"/>
<path d="M325.009 61.2804H323.514L324.411 44.0094L325.009 61.2804Z" fill="#2A82A8" stroke="#2A82A8"/>
<path d="M314.692 33.3178L314.916 34.8131L320.299 30.6262L320.897 31.3739L321.047 28.3832L314.692 33.3178Z" fill="#5B5652" stroke="#5B5652"/>
<path d="M311.402 32.5701L311.626 34.0654L317.009 29.8785L317.607 30.6262L317.757 27.6355L311.402 32.5701Z" fill="#2A82A8" stroke="#2A82A8"/>
<path d="M320.673 54.2524L313.196 54.3271V54.9253H314.318C318.638 54.9782 319.841 56.5219 320.673 60.9066V54.2524Z" fill="#5B5652" stroke="#5B5652"/>
<path d="M317.682 53.5795L310.206 53.6542V54.2524H311.327C315.648 54.3053 316.851 55.849 317.682 60.2337V53.5795Z" fill="#2A82A8" stroke="#2A82A8"/>
<path d="M356.176 14.3636L348.932 58H337.085L344.33 14.3636H356.176ZM371.592 58H354.546L361.79 14.3636H378.154C382.643 14.3636 386.393 15.2656 389.404 17.0696C392.415 18.8736 394.553 21.4517 395.817 24.804C397.082 28.1562 397.33 32.1477 396.563 36.7784C395.825 41.2386 394.326 45.0526 392.067 48.2202C389.823 51.3878 386.954 53.8097 383.46 55.4858C379.979 57.1619 376.023 58 371.592 58ZM368.055 47.9432H372.359C374.518 47.9432 376.442 47.5668 378.133 46.8139C379.837 46.0469 381.258 44.7685 382.394 42.9787C383.545 41.1747 384.376 38.7102 384.887 35.5852C385.37 32.6307 385.356 30.3509 384.844 28.7457C384.333 27.1264 383.36 26.0043 381.925 25.3793C380.491 24.7401 378.637 24.4205 376.364 24.4205H371.975L368.055 47.9432ZM398.55 58L405.794 14.3636H424.63C427.868 14.3636 430.603 14.9531 432.833 16.1321C435.063 17.3111 436.668 19.0085 437.648 21.2244C438.628 23.4403 438.863 26.0966 438.351 29.1932C437.84 32.3182 436.711 34.9531 434.963 37.098C433.23 39.2287 431.022 40.848 428.337 41.956C425.667 43.0497 422.669 43.5966 419.346 43.5966H408.096L409.63 34.392H418.493C419.885 34.392 421.107 34.2216 422.158 33.8807C423.209 33.5256 424.061 32.9716 424.715 32.2188C425.368 31.4517 425.794 30.4432 425.993 29.1932C426.192 27.9432 426.093 26.9276 425.695 26.1463C425.297 25.3509 424.637 24.7685 423.713 24.3991C422.79 24.0156 421.647 23.8239 420.283 23.8239H416.107L410.397 58H398.55ZM427.442 37.9716L435.027 58H422.158L414.828 37.9716H427.442Z" fill="#262626"/>
</svg>
