<svg width="300" height="31" viewBox="0 0 300 31" fill="none" xmlns="http://www.w3.org/2000/svg">
<g clip-path="url(#clip0_10_3)">
<path d="M29.2967 3L26.665 12.2453L27.4268 11.5181L27.9809 13.0071L28.1886 7.77847H29.2967V3Z" fill="#2A82A8" stroke="#2A82A8"/>
<path d="M30.8202 3.27701L28.1886 12.5223L28.9504 11.7952L29.5044 13.2841L29.7122 8.05548H30.8202V3.27701Z" fill="#5B5652" stroke="#5B5652"/>
<path d="M18.0776 23.2219L26.9074 16.2274V18.4088L26.3534 17.7509L18.0776 23.9837V25.438V26.8577H17.4543V21.6291H18.0776V23.2219Z" fill="#5B5652"/>
<path d="M18.0776 23.2219L26.9074 16.2274V18.4088L26.3534 17.7509L18.0776 23.9837M18.0776 23.2219V23.9837M18.0776 23.2219V21.6291H17.4543V26.8577H18.0776V25.438V23.9837" stroke="#5B5652"/>
<path d="M16.6233 22.8757L25.4531 15.8811V18.0626L24.899 17.4047L16.6233 23.6375V25.0918V26.5115H16V21.2829H16.6233V22.8757Z" fill="#2A82A8"/>
<path d="M16.6233 22.8757L25.4531 15.8811V18.0626L24.899 17.4047L16.6233 23.6375M16.6233 22.8757V23.6375M16.6233 22.8757V21.2829H16V26.5115H16.6233V25.0918V23.6375" stroke="#2A82A8"/>
<path d="M23.6871 25.161L21.4017 25.1836V25.3641H21.7445C23.0652 25.3801 23.4329 25.846 23.6871 27.1694V25.161Z" fill="#5B5652" stroke="#5B5652"/>
<path d="M22.0943 24.6763L18.1469 24.6934V24.8303C20.3889 24.9504 21.6158 25.3053 22.0943 26.1998V24.6763Z" fill="#2A82A8" stroke="#2A82A8"/>
<path d="M29.4352 28.1389H28.7427L29.1582 20.1402L29.4352 28.1389Z" fill="#2A82A8" stroke="#2A82A8"/>
<path d="M24.6566 15.1886L24.7605 15.8811L27.2536 13.942L27.5306 14.2883L27.5999 12.9032L24.6566 15.1886Z" fill="#5B5652" stroke="#5B5652"/>
<path d="M23.1331 14.8423L23.2369 15.5348L25.7301 13.5957L26.0071 13.942L26.0763 12.5569L23.1331 14.8423Z" fill="#2A82A8" stroke="#2A82A8"/>
<path d="M27.4268 24.884L23.9641 24.9186V25.1957H24.4835C26.4845 25.2202 27.0417 25.9351 27.4268 27.9658V24.884Z" fill="#5B5652" stroke="#5B5652"/>
<path d="M26.0418 24.5724L22.5791 24.607V24.884H23.0985C25.0995 24.9085 25.6567 25.6235 26.0418 27.6541V24.5724Z" fill="#2A82A8" stroke="#2A82A8"/>
<path d="M47.9489 4.63636L44.5682 25H39.0398L42.4205 4.63636H47.9489ZM55.1428 25H47.1882L50.5689 4.63636H58.2053C60.3 4.63636 62.05 5.05729 63.4553 5.89915C64.8606 6.741 65.8582 7.94413 66.4482 9.50852C67.0381 11.0729 67.1541 12.9356 66.7962 15.0966C66.4515 17.178 65.7521 18.9579 64.6982 20.4361C63.6508 21.9143 62.3118 23.0445 60.6811 23.8267C59.0571 24.6089 57.2109 25 55.1428 25ZM53.4922 20.3068H55.5007C56.5083 20.3068 57.4065 20.1312 58.1953 19.7798C58.9908 19.4219 59.6536 18.8253 60.1839 17.9901C60.7209 17.1482 61.1087 15.9981 61.3473 14.5398C61.5727 13.161 61.5661 12.0971 61.3274 11.348C61.0888 10.5923 60.6347 10.0687 59.9652 9.77699C59.2957 9.47869 58.4306 9.32954 57.37 9.32954H55.3217L53.4922 20.3068ZM67.7234 25L71.104 4.63636H79.8938C81.4052 4.63636 82.6812 4.91146 83.7219 5.46165C84.7627 6.01184 85.5117 6.80398 85.9691 7.83807C86.4265 8.87216 86.5359 10.1117 86.2972 11.5568C86.0586 13.0152 85.5316 14.2448 84.7163 15.2457C83.9076 16.2401 82.8768 16.9957 81.6239 17.5128C80.3777 18.0232 78.979 18.2784 77.4279 18.2784H72.1779L72.8938 13.983H77.0302C77.6798 13.983 78.2499 13.9034 78.7404 13.7443C79.2309 13.5786 79.6287 13.3201 79.9336 12.9688C80.2385 12.6108 80.4374 12.1402 80.5302 11.5568C80.623 10.9735 80.5766 10.4995 80.391 10.1349C80.2054 9.76373 79.8971 9.49195 79.4663 9.3196C79.0354 9.14062 78.5018 9.05114 77.8654 9.05114H75.9165L73.2518 25H67.7234ZM81.2063 15.6534L84.7461 25H78.7404L75.32 15.6534H81.2063Z" fill="#E4E4E4"/>
</g>
<defs>
<clipPath id="clip0_10_3">
<rect width="300" height="31" fill="white"/>
</clipPath>
</defs>
</svg>
